<svg width="1549" height="480" viewBox="0 0 1549 480" fill="none" xmlns="http://www.w3.org/2000/svg">
<path d="M1374.89 239.299C1374.43 190.269 1340.91 154.697 1295.14 154.697C1248.17 154.697 1215.37 189.086 1215.37 238.232C1215.37 287.819 1248.9 323.831 1295.14 323.831C1317.56 323.831 1337.73 315.64 1352.16 300.627V312.763C1352.14 314.226 1352.4 315.679 1352.95 317.036C1353.49 318.394 1354.29 319.629 1355.32 320.669C1356.34 321.709 1357.56 322.532 1358.91 323.091C1360.25 323.651 1361.69 323.933 1363.14 323.924C1366.14 323.967 1369.04 322.853 1371.25 320.812C1373.45 318.77 1374.79 315.956 1375 312.949V239.299H1374.89ZM1295.85 301.95H1295.14C1267.46 301.95 1238.13 279.627 1238.13 238.255C1238.13 208.67 1260.72 176.996 1294.42 176.555H1295.14C1322.82 176.555 1352.16 198.878 1352.16 240.25C1352.16 269.905 1329.58 301.578 1295.85 301.95Z" fill="white"/>
<path d="M950 154.725C903.012 154.725 870.206 189.113 870.206 238.259C870.206 287.846 903.772 323.859 950 323.859C972.402 323.859 992.565 315.668 1007.01 300.654V312.79C1007.01 315.701 1008.16 318.493 1010.2 320.551C1012.25 322.61 1015.02 323.766 1017.92 323.766C1020.92 323.808 1023.81 322.695 1026.02 320.653C1028.22 318.612 1029.57 315.798 1029.78 312.79V239.303C1029.27 190.296 995.747 154.725 950 154.725ZM950.72 301.954H950C922.318 301.954 892.974 279.632 892.974 238.259C892.974 208.674 915.559 177 949.263 176.559H950C977.687 176.559 1007.01 198.882 1007.01 240.255C1007.01 269.909 984.423 301.583 950.72 301.954Z" fill="white"/>
<path d="M687.612 154.725C640.644 154.725 607.839 189.113 607.839 238.259C607.839 287.846 641.405 323.859 687.612 323.859C710.035 323.859 730.197 315.668 744.639 300.654V312.79C744.639 315.701 745.789 318.493 747.835 320.551C749.88 322.61 752.657 323.766 755.548 323.766C758.548 323.808 761.444 322.694 763.644 320.652C765.844 318.61 767.186 315.796 767.386 312.79V239.303C766.901 190.296 733.358 154.725 687.612 154.725ZM688.35 301.954H687.612C659.929 301.954 630.608 279.632 630.608 238.259C630.608 208.674 653.193 177 686.897 176.559H687.612C715.295 176.559 744.639 198.882 744.639 240.255C744.639 269.909 722.054 301.583 688.35 301.954Z" fill="white"/>
<path d="M855.625 155.557C853.071 155.07 850.477 154.829 847.877 154.838C842.124 154.722 836.422 155.948 831.217 158.419C826.012 160.891 821.453 164.542 817.888 169.085V166.277C817.888 163.243 816.688 160.334 814.557 158.188C812.42 156.043 809.529 154.838 806.512 154.838C803.495 154.838 800.604 156.043 798.468 158.188C796.336 160.334 795.137 163.243 795.137 166.277V312.462C795.137 315.496 796.336 318.406 798.468 320.551C800.604 322.697 803.495 323.902 806.512 323.902C809.529 323.902 812.42 322.697 814.557 320.551C816.688 318.406 817.888 315.496 817.888 312.462V234.102C817.888 218.207 817.699 194.168 828.68 183.054C830.646 180.899 833.057 179.208 835.742 178.101C838.433 176.993 841.33 176.498 844.232 176.65C847.266 176.667 850.3 176.923 853.294 177.415C853.705 177.501 854.122 177.54 854.539 177.531C856.288 177.408 857.973 176.841 859.442 175.883C860.91 174.926 862.115 173.608 862.938 172.055C863.835 170.533 864.355 168.817 864.458 167.051C864.561 165.285 864.241 163.52 863.521 161.904C862.807 160.288 861.715 158.869 860.344 157.764C858.967 156.66 857.35 155.903 855.625 155.557Z" fill="white"/>
<path d="M1206.51 158.227C1205.42 157.163 1204.13 156.328 1202.72 155.77C1201.31 155.213 1199.8 154.944 1198.29 154.981C1196.78 155.018 1195.28 155.359 1193.9 155.984C1192.52 156.609 1191.27 157.506 1190.24 158.622L1129.89 222.804L1069.54 158.436C1068.47 157.294 1067.18 156.382 1065.75 155.756C1064.32 155.129 1062.78 154.802 1061.21 154.793C1058.24 154.778 1055.38 155.946 1053.25 158.042C1051.17 160.15 1049.96 162.986 1049.89 165.961C1049.83 168.937 1050.9 171.825 1052.89 174.029L1114.23 239.441L1053.28 304.273C1051.2 306.445 1050.01 309.332 1049.97 312.348C1049.93 315.365 1051.03 318.285 1053.05 320.516C1054.12 321.626 1055.41 322.505 1056.84 323.099C1058.26 323.694 1059.78 323.991 1061.33 323.974C1062.86 323.956 1064.38 323.625 1065.79 322.998C1067.2 322.372 1068.47 321.464 1069.52 320.33L1129.87 256.171L1190.13 320.284C1191.18 321.419 1192.44 322.326 1193.86 322.953C1195.27 323.579 1196.79 323.912 1198.34 323.929C1199.88 323.946 1201.4 323.649 1202.83 323.054C1204.25 322.46 1205.55 321.58 1206.62 320.47C1208.63 318.234 1209.72 315.316 1209.68 312.303C1209.64 309.289 1208.46 306.404 1206.39 304.227L1145.53 239.464L1206.89 174.331C1208.92 172.118 1210.01 169.203 1209.93 166.199C1209.86 163.196 1208.63 160.338 1206.51 158.227Z" fill="white"/>
<path d="M598.084 154.838H475.818C472.802 154.838 469.908 156.043 467.775 158.188C465.643 160.334 464.444 163.244 464.444 166.277C464.444 169.311 465.643 172.221 467.775 174.367C469.908 176.512 472.802 177.717 475.818 177.717H525.739V312.95C525.739 315.857 526.886 318.645 528.927 320.702C530.968 322.76 533.738 323.919 536.628 323.925C539.625 323.968 542.524 322.854 544.729 320.813C546.935 318.771 548.279 315.957 548.485 312.95V177.717H598.199C601.216 177.717 604.109 176.512 606.242 174.367C608.374 172.221 609.572 169.311 609.572 166.277C609.572 163.244 608.374 160.334 606.242 158.188C604.109 156.043 601.216 154.838 598.199 154.838H598.084Z" fill="white"/>
<path d="M267.362 356.436C265.448 358.362 261.941 358.756 257.696 357.851C251.836 356.459 247.546 353.21 247.015 349.474C246.895 348.722 246.961 347.953 247.206 347.232C247.451 346.512 247.869 345.863 248.423 345.344C248.81 344.943 249.253 344.599 249.737 344.323C250.813 343.757 251.988 343.41 253.198 343.302C255.943 343.076 258.702 343.539 261.226 344.648C263.751 345.758 265.962 347.48 267.662 349.66C268.34 350.531 268.725 351.596 268.762 352.701C268.799 353.806 268.487 354.894 267.87 355.809C267.726 356.038 267.556 356.248 267.362 356.436Z" fill="#15AC5B"/>
<path d="M361.187 348.361L360.541 348.964C355.628 353.327 348.061 355.647 344.393 353.93C343.566 353.551 342.869 352.935 342.389 352.159C341.908 351.382 341.666 350.481 341.694 349.568C341.899 347.545 342.865 345.678 344.393 344.347C347.691 341.198 351.901 339.19 356.412 338.615C357.133 338.535 357.86 338.535 358.581 338.615C361.879 338.894 363.194 340.449 363.563 341.724C364.648 344.649 362.179 347.433 361.418 348.198L361.187 348.361Z" fill="#15AC5B"/>
<path d="M251.675 256.144C249.512 258.352 246.781 259.911 243.786 260.646C240.692 261.308 237.472 261.013 234.549 259.799C231.625 258.586 229.135 256.511 227.407 253.847C224.798 250.04 223.292 245.579 223.056 240.962C222.82 236.345 223.863 231.752 226.069 227.696C226.958 226.077 228.06 224.586 229.345 223.264C231.049 221.528 233.114 220.194 235.391 219.356C237.668 218.517 240.102 218.196 242.517 218.414C244.737 218.731 246.869 219.502 248.781 220.679C250.693 221.857 252.346 223.416 253.636 225.259C257.329 230.728 258.767 237.424 257.651 243.938C256.965 248.532 254.877 252.797 251.675 256.144Z" fill="#15AC5B"/>
<path d="M304.802 193.727C304.161 194.394 303.369 194.895 302.495 195.189C301.269 195.59 299.951 195.607 298.716 195.239C297.48 194.87 296.385 194.132 295.575 193.124C294.511 191.805 293.897 190.179 293.821 188.484V180.873H288.908H288.584C287.264 180.741 286.014 180.209 285.001 179.347C283.987 178.485 283.258 177.334 282.91 176.046C282.538 174.672 282.518 173.225 282.853 171.841C283.188 170.458 283.866 169.182 284.824 168.133L285.262 167.716C286.231 166.914 287.425 166.435 288.677 166.347H293.475V159.618C293.432 157.61 294.149 155.66 295.482 154.165C296.434 153.241 297.654 152.648 298.966 152.471H299.657C301.277 152.641 302.779 153.404 303.876 154.615C304.973 155.826 305.59 157.399 305.609 159.037C305.748 161.497 305.863 163.841 305.979 166.184C307.516 166.184 309.054 166.138 310.592 166.045H310.8C312.744 166.233 314.535 167.189 315.78 168.702C317.026 170.216 317.624 172.164 317.444 174.12C317.396 175.856 316.705 177.511 315.506 178.761C314.544 179.713 313.31 180.337 311.976 180.548H311.769C310.015 180.548 308.354 180.687 306.74 180.71C306.74 183.031 306.947 185.513 307.04 187.926C307.064 190.078 306.263 192.156 304.802 193.727Z" fill="#15AC5B"/>
<path d="M365.682 271.234C364.508 272.464 362.971 273.277 361.299 273.554C359.981 273.742 358.638 273.512 357.455 272.896C356.273 272.281 355.31 271.311 354.701 270.12C353.885 268.486 353.596 266.637 353.87 264.83C354.701 259.145 355.37 253.413 355.855 247.682H353.778C349.718 247.682 345.542 247.403 341.39 247.171C339.804 247.062 338.296 246.437 337.094 245.39C335.891 244.344 335.059 242.934 334.723 241.37C334.346 239.806 334.359 238.171 334.762 236.612C335.164 235.054 335.943 233.62 337.03 232.437C337.386 232.087 337.773 231.768 338.184 231.486C339.427 230.674 340.876 230.239 342.359 230.233H342.497C346.719 230.465 350.779 230.65 354.609 230.743H356.754C356.916 225.104 356.938 219.397 356.754 213.758C356.688 211.406 357.513 209.117 359.061 207.354C360.161 206.267 361.59 205.581 363.121 205.404H363.352C367.343 205.59 370.273 208.746 370.642 213.41C370.964 219.165 371.103 225.012 371.057 230.65C375.094 230.511 378.993 230.302 382.591 229.977C383.449 229.921 384.309 230.059 385.108 230.38C385.906 230.701 386.623 231.198 387.206 231.834C388.007 232.79 388.609 233.9 388.973 235.096C389.338 236.292 389.459 237.55 389.328 238.795C389.131 241.083 388.209 243.246 386.698 244.967C385.725 245.968 384.453 246.619 383.076 246.823C378.97 247.195 374.725 247.427 370.365 247.566C369.927 253.553 369.281 259.516 368.427 265.34C368.09 267.528 367.138 269.573 365.682 271.234Z" fill="#15AC5B"/>
<path d="M180.345 246.264C180.065 246.548 179.724 246.765 179.349 246.897C178.973 247.03 178.572 247.075 178.177 247.029C177.77 246.97 177.381 246.818 177.041 246.585C176.702 246.352 176.419 246.043 176.216 245.683C175.197 242.776 174.812 239.681 175.086 236.611C175.226 229.96 175.85 223.329 176.954 216.772C178.825 206.487 181.924 196.468 186.182 186.931C186.845 185.359 187.774 183.915 188.927 182.662C189.198 182.39 189.491 182.141 189.804 181.919C190.307 181.559 190.913 181.376 191.53 181.396C192.147 181.417 192.74 181.642 193.218 182.035C194.925 183.451 194.694 186.676 192.503 191.757C190.173 197.117 188.207 202.628 186.62 208.256C187.52 209.35 188.524 210.352 189.619 211.249C190.944 212.277 191.853 213.752 192.18 215.403C192.475 217.657 192.35 219.946 191.811 222.155C191.46 223.878 190.664 225.479 189.504 226.795C188.925 227.429 188.136 227.826 187.285 227.912C186.434 227.997 185.582 227.765 184.89 227.26C184.201 226.788 183.546 226.268 182.929 225.705C182.264 230.381 181.864 235.091 181.73 239.813C181.73 239.813 182.006 244.639 180.345 246.264Z" fill="#15AC5B"/>
<path d="M318.114 319.239C314.232 323.111 309.265 325.694 303.881 326.641C298.845 327.709 293.603 327.166 288.89 325.085C284.177 323.004 280.231 319.491 277.604 315.039C275.462 311.439 274.288 307.34 274.199 303.145C274.11 298.95 275.109 294.804 277.097 291.115C278.284 288.879 279.792 286.831 281.572 285.036C286.493 280.211 293.022 277.399 299.889 277.147C303.795 277.137 307.657 277.986 311.203 279.633C314.749 281.28 317.895 283.686 320.421 286.683C322.519 289.316 324.033 292.37 324.861 295.64C325.688 298.91 325.811 302.32 325.219 305.641C324.295 310.8 321.815 315.548 318.114 319.239Z" fill="#15AC5B"/>
<path d="M403.146 307.171C400.935 309.763 397.92 311.529 394.587 312.183C393.387 312.301 392.178 312.051 391.121 311.467C390.063 310.884 389.205 309.993 388.658 308.911C384.367 300.859 390.965 275.938 402.5 264.244C403.765 262.952 405.165 261.8 406.675 260.809C407.72 260.119 408.887 259.638 410.113 259.394C411.3 259.12 412.539 259.176 413.697 259.556C414.856 259.936 415.89 260.626 416.687 261.552C420.01 265.404 419.94 274.152 416.48 284.338C413.689 292.861 409.119 300.686 403.077 307.287L403.146 307.171Z" fill="#15AC5B"/>
<path d="M237.623 162.1L237.047 162.657C224.635 174.074 212.27 177.137 206.48 174.259C205.223 173.645 204.188 172.649 203.522 171.413C202.856 170.177 202.591 168.762 202.766 167.367C203.227 161.984 207.195 155.301 213.931 148.526C219.999 142.312 227.124 137.243 234.97 133.559C240.945 131.03 245.582 130.891 248.396 133.188C249.2 133.855 249.844 134.696 250.279 135.648C250.714 136.601 250.93 137.639 250.911 138.687C251.211 147.946 237.761 161.961 237.623 162.1Z" fill="#15AC5B"/>
<path d="M217.119 319.539C216.246 320.41 215.148 321.017 213.949 321.292C212.75 321.567 211.499 321.498 210.337 321.093C203.116 318.982 196.68 310.397 193.496 305.454C188.929 298.515 185.582 290.839 183.599 282.761C182.354 276.751 182.977 272.295 185.376 269.859L185.837 269.441C186.62 268.807 187.532 268.351 188.508 268.107C189.484 267.862 190.501 267.835 191.489 268.026C199.125 269.325 209.068 282.273 211.813 286.845C220.625 301.393 221.456 313.946 217.742 318.843C217.559 319.096 217.35 319.329 217.119 319.539Z" fill="#15AC5B"/>
<path d="M424.231 242.507C425.2 241.533 425.2 240.791 424.924 234.455V234.015C424.581 227.395 423.748 220.81 422.432 214.314C421.463 209.071 419.618 203.061 419.549 202.829C417.688 196.663 415.374 190.644 412.628 184.822C412.035 183.389 411.259 182.04 410.321 180.808C410.071 180.525 409.766 180.296 409.425 180.136C409.084 179.977 408.713 179.89 408.337 179.88C407.962 179.87 407.588 179.936 407.239 180.076C406.89 180.215 406.573 180.425 406.307 180.692C406.046 180.958 405.841 181.273 405.703 181.62C405.564 181.966 405.495 182.337 405.499 182.711C405.784 185.132 406.478 187.486 407.553 189.672C410.02 195.054 412.124 200.596 413.85 206.263C413.239 207.514 412.463 208.677 411.543 209.72V209.882V210.045C411.248 210.6 411.03 211.193 410.898 211.808C410.39 214.546 411.405 222.738 414.335 224.71C414.855 225.066 415.47 225.257 416.1 225.257C416.729 225.257 417.344 225.066 417.864 224.71L418.072 224.548C418.649 228.423 419.064 232.576 419.387 237.379C419.618 240.813 420.01 242.461 421.694 243.134C422.134 243.271 422.602 243.285 423.049 243.174C423.496 243.064 423.905 242.834 424.231 242.507Z" fill="#15AC5B"/>
<path d="M297.606 363.977C297.506 363.785 297.428 363.583 297.376 363.373H293.108C291.371 363.436 289.675 362.84 288.356 361.703C287.807 361.143 287.5 360.389 287.5 359.602C287.5 358.817 287.807 358.063 288.356 357.503C289.358 356.617 290.669 356.167 292 356.25C294.307 356.25 296.615 356.25 299.06 356.25C299.221 355.391 299.359 354.393 299.498 353.303C299.668 352.43 300.085 351.624 300.697 350.982C302.121 349.741 303.959 349.086 305.842 349.149C306.557 349.102 307.273 349.215 307.939 349.48C308.605 349.744 309.205 350.155 309.694 350.681C310.12 351.201 310.424 351.811 310.583 352.466C310.743 353.121 310.755 353.803 310.617 354.463C310.502 355.089 310.387 355.577 310.271 356.018L315.254 355.855C316.046 355.826 316.834 355.977 317.561 356.296C317.975 356.498 318.334 356.798 318.606 357.172C318.878 357.545 319.054 357.98 319.12 358.438C319.186 358.896 319.139 359.363 318.984 359.799C318.829 360.234 318.57 360.625 318.23 360.936C316.556 362.241 314.511 362.973 312.393 363.025C310.294 363.025 308.195 363.164 306.073 363.234C305.272 364.074 304.283 364.711 303.189 365.09C302.033 365.364 300.844 365.465 299.659 365.392C297.952 365.16 297.814 364.603 297.606 363.977Z" fill="#15AC5B"/>
<path d="M328.034 124.906C326.834 126.112 323.189 129.756 290.731 129.059C272.276 128.247 269.23 125.416 268.792 122.748C268.705 122.153 268.764 121.545 268.965 120.979C269.166 120.412 269.503 119.904 269.946 119.499C270.888 118.636 271.995 117.973 273.198 117.55C278.274 115.578 288.378 114.139 298.344 114C302.958 114 325.681 114 328.818 120.52C329.101 121.103 329.229 121.749 329.188 122.396C329.148 123.043 328.941 123.668 328.588 124.21C328.417 124.453 328.232 124.685 328.034 124.906Z" fill="#15AC5B"/>
<path d="M398.094 177.438C396.575 178.871 394.629 179.76 392.557 179.967C383.145 181.313 363.49 167.901 355.508 151.821C351.609 143.978 353.339 139.755 355.508 137.597L355.669 137.434C361.714 131.773 374.909 137.179 388.497 150.846C399.432 161.868 403.192 172.287 398.094 177.438Z" fill="#15AC5B"/>
</svg>
