<svg width="635" height="635" viewBox="0 0 635 635" fill="none" xmlns="http://www.w3.org/2000/svg">
<path d="M498.017 513.346C496.784 513.346 495.604 512.856 494.732 511.98C493.863 511.105 493.372 509.919 493.372 508.683V504.291C490.331 507.247 486.737 509.564 482.799 511.118C478.86 512.671 474.654 513.423 470.426 513.336C451.544 513.336 437.84 498.661 437.84 478.435C437.84 458.207 451.235 444.345 470.426 444.345C489.123 444.345 502.815 458.854 503 478.839V508.671C502.92 509.94 502.359 511.133 501.431 512.002C500.507 512.871 499.283 513.352 498.017 513.346ZM470.456 453.673C456.755 453.673 447.51 466.481 447.51 478.445C447.51 490.858 455.541 504.039 470.456 504.039C473.637 504.026 476.771 503.311 479.643 501.946C482.515 500.581 485.055 498.596 487.08 496.137C491.089 491.428 493.317 485.453 493.372 479.258C493.372 466.854 485.341 453.673 470.426 453.673H470.456Z" fill="#3E3A39"/>
<path d="M502.498 479.233V478.894C502.331 459.14 488.913 444.871 470.469 444.871C451.762 444.871 438.43 458.668 438.43 478.41C438.43 498.155 451.904 512.763 470.469 512.763C480.075 512.763 488.235 509.12 493.93 502.885V508.627C493.93 509.718 494.362 510.766 495.129 511.536C495.9 512.31 496.941 512.741 498.026 512.741C499.154 512.753 500.245 512.334 501.074 511.57C501.906 510.809 502.417 509.755 502.507 508.627V479.233H502.498ZM470.456 504.587C455.313 504.587 446.998 491.119 446.998 478.444C446.998 466.262 456.296 453.124 470.456 453.124C485.613 453.124 493.918 466.591 493.918 479.258C493.918 491.44 484.62 504.587 470.456 504.587Z" fill="#3E3A39"/>
<path d="M357.972 513.346C356.74 513.346 355.559 512.856 354.688 511.98C353.817 511.105 353.328 509.919 353.328 508.683V504.291C350.286 507.247 346.693 509.564 342.755 511.118C338.816 512.671 334.61 513.423 330.38 513.336C311.498 513.336 297.795 498.661 297.795 478.435C297.795 458.207 311.192 444.345 330.38 444.345C349.077 444.345 362.769 458.854 362.955 478.839V508.671C362.871 509.94 362.31 511.13 361.384 511.999C360.459 512.868 359.239 513.349 357.972 513.346ZM330.413 453.673C316.71 453.673 307.466 466.481 307.466 478.445C307.466 490.858 315.498 504.039 330.413 504.039C333.591 504.026 336.726 503.311 339.599 501.943C342.47 500.578 345.009 498.596 347.034 496.137C351.039 491.428 353.263 485.449 353.317 479.258C353.317 466.854 345.285 453.673 330.37 453.673H330.413Z" fill="#3E3A39"/>
<path d="M362.464 478.852C362.3 459.095 348.892 444.829 330.436 444.829C311.729 444.829 298.397 458.623 298.397 478.368C298.397 498.113 311.871 512.721 330.436 512.721C340.041 512.721 348.204 509.078 353.897 502.844V508.582C353.9 509.673 354.333 510.721 355.101 511.491C355.868 512.261 356.909 512.696 357.995 512.699C359.123 512.711 360.213 512.292 361.047 511.528C361.88 510.767 362.395 509.713 362.486 508.582V478.852H362.464ZM330.414 504.588C315.269 504.588 306.953 491.12 306.953 478.445C306.953 466.263 316.263 453.125 330.414 453.125C345.57 453.125 353.875 466.593 353.875 479.259C353.875 491.441 344.576 504.588 330.414 504.588Z" fill="#3E3A39"/>
<path d="M251.519 513.345C250.287 513.345 249.106 512.855 248.235 511.98C247.364 511.105 246.875 509.918 246.875 508.682V504.291C243.833 507.246 240.24 509.564 236.301 511.117C232.363 512.67 228.157 513.422 223.927 513.336C205.034 513.336 191.331 498.66 191.331 478.435C191.331 458.206 204.783 444.356 223.927 444.356C242.613 444.356 256.305 458.865 256.491 478.851V508.682C256.407 509.949 255.847 511.135 254.923 512.001C254 512.867 252.783 513.348 251.519 513.345ZM223.927 453.673C210.213 453.673 200.98 466.48 200.98 478.444C200.98 490.857 209.011 504.038 223.927 504.038C227.111 504.035 230.254 503.326 233.134 501.964C236.014 500.602 238.56 498.62 240.591 496.158C244.601 491.443 246.826 485.458 246.875 479.258C246.875 466.853 238.854 453.673 223.927 453.673Z" fill="#3E3A39"/>
<path d="M256.009 478.852C255.845 459.095 242.437 444.829 223.981 444.829C205.284 444.829 191.942 458.623 191.942 478.368C191.942 498.113 205.35 512.798 223.926 512.798C233.531 512.798 241.694 509.155 247.398 502.921V508.659C247.398 509.75 247.828 510.794 248.594 511.568C249.36 512.338 250.4 512.773 251.485 512.776C252.613 512.788 253.704 512.369 254.537 511.605C255.37 510.844 255.885 509.79 255.976 508.659V478.852H256.009ZM223.926 504.588C208.781 504.588 200.465 491.12 200.465 478.445C200.465 466.263 209.775 453.125 223.926 453.125C239.082 453.125 247.398 466.593 247.398 479.259C247.431 491.441 238.132 504.588 223.926 504.588Z" fill="#3E3A39"/>
<path d="M272.17 513.346C270.888 513.346 269.659 512.835 268.751 511.926C267.844 511.016 267.332 509.784 267.33 508.495V449.23C267.33 447.939 267.84 446.703 268.747 445.791C269.655 444.878 270.887 444.367 272.17 444.367C273.454 444.367 274.685 444.878 275.593 445.791C276.501 446.703 277.011 447.939 277.011 449.23V449.757C278.489 448.016 280.335 446.629 282.415 445.695C284.494 444.764 286.755 444.311 289.031 444.367C290.099 444.364 291.164 444.465 292.211 444.675C292.95 444.817 293.642 445.14 294.231 445.609C294.82 446.08 295.287 446.687 295.593 447.378C295.898 448.068 296.034 448.823 295.987 449.575C295.94 450.33 295.713 451.064 295.325 451.711C294.975 452.373 294.46 452.937 293.83 453.344C293.201 453.751 292.478 453.991 291.73 454.037C291.548 454.053 291.366 454.053 291.184 454.037C289.981 453.837 288.764 453.735 287.545 453.729C286.396 453.661 285.246 453.853 284.179 454.284C283.112 454.719 282.153 455.381 281.371 456.232C277 460.62 277 470.346 277 476.744V508.508C276.994 509.79 276.483 511.019 275.579 511.926C274.674 512.835 273.448 513.343 272.17 513.346Z" fill="#3E3A39"/>
<path d="M292.069 445.244C291.054 445.047 290.022 444.945 288.987 444.948C286.534 444.893 284.105 445.45 281.919 446.572C279.734 447.691 277.86 449.34 276.465 451.367V449.259C276.465 448.116 276.012 447.019 275.207 446.212C274.401 445.401 273.309 444.948 272.17 444.948C271.031 444.948 269.939 445.401 269.134 446.212C268.328 447.019 267.876 448.116 267.876 449.259V508.528C267.876 509.092 267.987 509.653 268.203 510.177C268.419 510.698 268.735 511.172 269.134 511.573C269.533 511.974 270.007 512.291 270.528 512.507C271.049 512.719 271.607 512.83 272.17 512.83C272.734 512.83 273.292 512.719 273.813 512.507C274.334 512.291 274.807 511.974 275.206 511.573C275.605 511.172 275.922 510.698 276.138 510.177C276.353 509.653 276.465 509.092 276.465 508.528V476.734C276.465 470.246 276.399 460.422 280.956 455.879C281.781 454.97 282.799 454.261 283.933 453.799C285.068 453.337 286.291 453.136 287.512 453.213C288.764 453.217 290.014 453.324 291.25 453.531C291.98 453.586 292.71 453.423 293.348 453.059C293.986 452.699 294.503 452.156 294.834 451.5C295.174 450.927 295.372 450.28 295.41 449.611C295.448 448.945 295.325 448.279 295.052 447.669C294.79 447.05 294.382 446.507 293.862 446.082C293.341 445.66 292.726 445.373 292.069 445.244Z" fill="#3E3A39"/>
<path d="M431.195 513.357C430.529 513.351 429.871 513.212 429.261 512.944C428.65 512.676 428.1 512.285 427.644 511.798L403.396 485.985L379.094 511.81C378.639 512.294 378.091 512.682 377.482 512.947C376.873 513.216 376.217 513.354 375.554 513.357C374.908 513.357 374.268 513.228 373.673 512.975C373.078 512.722 372.539 512.353 372.09 511.887C371.236 510.941 370.77 509.708 370.786 508.433C370.802 507.157 371.299 505.936 372.177 505.015L396.764 478.906L372.013 452.563C371.261 451.605 370.897 450.394 370.993 449.176C371.088 447.959 371.637 446.822 372.529 445.993C373.422 445.161 374.593 444.698 375.809 444.698C377.026 444.695 378.198 445.151 379.094 445.98L403.418 471.892L427.742 446.067C428.156 445.54 428.673 445.102 429.263 444.785C429.852 444.47 430.5 444.279 431.167 444.224C431.833 444.171 432.504 444.258 433.135 444.48C433.767 444.698 434.346 445.05 434.837 445.506C435.327 445.962 435.718 446.514 435.985 447.13C436.253 447.746 436.39 448.409 436.388 449.081C436.387 449.753 436.248 450.418 435.978 451.031C435.709 451.645 435.316 452.196 434.823 452.653L410.062 478.992L434.572 505.092C435.451 506.013 435.95 507.234 435.968 508.507C435.987 509.782 435.523 511.018 434.67 511.961C434.22 512.427 433.681 512.796 433.086 513.049C432.491 513.302 431.852 513.431 431.206 513.434L431.195 513.357Z" fill="#3E3A39"/>
<path d="M434.267 446.23C433.858 445.829 433.373 445.515 432.841 445.305C432.309 445.096 431.741 444.997 431.169 445.009C430.598 445.025 430.036 445.154 429.515 445.388C428.994 445.626 428.525 445.965 428.137 446.384L403.408 472.638L378.68 446.298C378.29 445.878 377.821 445.539 377.3 445.305C376.778 445.071 376.216 444.942 375.644 444.929C375.073 444.914 374.505 445.016 373.973 445.228C373.442 445.438 372.958 445.752 372.549 446.156C371.745 446.939 371.28 448.008 371.253 449.133C371.227 450.258 371.641 451.349 372.407 452.168L397.54 478.906L372.539 505.388C371.754 506.204 371.307 507.289 371.289 508.426C371.271 509.56 371.682 510.66 372.44 511.502C372.846 511.918 373.333 512.251 373.87 512.473C374.407 512.697 374.984 512.808 375.565 512.799C376.147 512.793 376.721 512.667 377.252 512.432C377.784 512.195 378.262 511.853 378.658 511.425L403.397 485.183L428.049 511.425C428.445 511.853 428.923 512.195 429.455 512.432C429.987 512.667 430.56 512.793 431.142 512.799C431.723 512.808 432.3 512.697 432.837 512.473C433.374 512.251 433.861 511.918 434.267 511.502C435.027 510.66 435.44 509.56 435.422 508.426C435.404 507.289 434.956 506.204 434.169 505.388L409.309 478.915L434.442 452.258C435.204 451.429 435.613 450.335 435.581 449.207C435.548 448.082 435.076 447.013 434.267 446.23Z" fill="#3E3A39"/>
<path d="M162.657 513.346C161.425 513.346 160.244 512.856 159.373 511.981C158.502 511.106 158.013 509.919 158.013 508.684V454.112H138.071C137.416 454.145 136.763 454.041 136.149 453.813C135.535 453.582 134.974 453.23 134.5 452.774C134.026 452.321 133.649 451.776 133.391 451.172C133.133 450.564 133 449.914 133 449.258C133 448.598 133.133 447.948 133.391 447.344C133.649 446.737 134.026 446.191 134.5 445.738C134.974 445.282 135.535 444.931 136.149 444.7C136.763 444.472 137.416 444.37 138.071 444.401H187.637C188.88 444.459 190.052 444.996 190.91 445.902C191.769 446.805 192.248 448.007 192.248 449.258C192.248 450.506 191.769 451.708 190.91 452.611C190.052 453.517 188.88 454.053 187.637 454.112H167.684V508.684C167.6 509.959 167.032 511.152 166.097 512.021C165.161 512.89 163.93 513.365 162.657 513.346Z" fill="#3E3A39"/>
<path d="M187.637 444.949H138.071C137.489 444.918 136.908 445.008 136.362 445.211C135.816 445.415 135.317 445.729 134.895 446.13C134.473 446.533 134.137 447.017 133.908 447.556C133.678 448.093 133.56 448.672 133.56 449.258C133.56 449.84 133.678 450.419 133.908 450.956C134.137 451.495 134.473 451.979 134.895 452.383C135.317 452.786 135.816 453.098 136.362 453.301C136.908 453.504 137.489 453.594 138.071 453.563H158.559V508.683C158.559 509.774 158.991 510.819 159.76 511.593C160.528 512.363 161.57 512.798 162.657 512.798C163.784 512.81 164.874 512.391 165.705 511.627C166.537 510.862 167.049 509.811 167.137 508.683V453.563H187.637C188.737 453.507 189.774 453.03 190.533 452.228C191.292 451.427 191.715 450.364 191.715 449.258C191.715 448.151 191.292 447.085 190.533 446.284C189.774 445.482 188.737 445.005 187.637 444.949Z" fill="#3E3A39"/>
<path d="M284.769 384.803C282.715 386.866 278.912 387.426 274.334 386.329C267.985 384.814 263.341 381.181 262.783 377.263C262.664 376.453 262.738 375.627 263.001 374.852C263.263 374.077 263.706 373.376 264.291 372.807C264.719 372.38 265.2 372.011 265.723 371.71C266.878 371.093 268.145 370.719 269.449 370.612C277.437 370.14 283.272 374.574 285.097 377.472C287.206 380.764 285.971 383.234 285.337 384.123C285.164 384.362 284.974 384.59 284.769 384.803Z" fill="#15AC5B"/>
<path d="M386.274 376.09C386.089 376.277 385.793 376.551 385.564 376.748C380.253 381.468 372.08 383.97 368.08 382.115C367.184 381.711 366.428 381.047 365.91 380.208C365.392 379.369 365.135 378.393 365.174 377.407C365.392 375.221 366.437 373.203 368.091 371.766C371.66 368.361 376.214 366.186 381.095 365.554C381.883 365.469 382.678 365.469 383.466 365.554C387.018 365.861 388.362 367.551 388.853 368.912C390.012 372.073 387.356 375.069 386.515 375.914L386.274 376.09Z" fill="#15AC5B"/>
<path d="M267.844 276.51C265.499 278.892 262.54 280.572 259.299 281.361C252.743 282.92 246.077 280.176 241.597 274.03C235.947 266.193 235.292 254.593 240.143 245.812C241.101 244.053 242.3 242.439 243.706 241.016C245.43 239.157 247.551 237.712 249.91 236.792C252.268 235.872 254.803 235.499 257.326 235.702C259.848 235.905 262.292 236.678 264.475 237.963C266.657 239.248 268.523 241.012 269.931 243.123C273.958 249.031 275.527 256.286 274.302 263.34C273.558 268.295 271.302 272.897 267.844 276.51Z" fill="#15AC5B"/>
<path d="M325.42 209.109C324.713 209.822 323.853 210.363 322.906 210.69C321.585 211.119 320.166 211.139 318.833 210.747C317.5 210.356 316.315 209.571 315.432 208.495C314.263 207.034 313.596 205.232 313.531 203.359L313.4 195.138C311.629 195.138 309.87 195.138 308.1 195.138H307.991H307.87C306.442 194.998 305.09 194.424 303.995 193.493C302.9 192.561 302.113 191.317 301.74 189.925C301.336 188.443 301.313 186.883 301.672 185.39C302.031 183.896 302.761 182.519 303.794 181.386C303.947 181.232 304.111 181.09 304.275 180.947C305.324 180.081 306.615 179.563 307.969 179.465H308.187H313.148L313.028 172.2C312.992 170.036 313.773 167.938 315.213 166.328C316.234 165.301 317.563 164.642 318.994 164.451H319.191H319.705H319.836C321.923 164.693 325.54 165.944 326.272 171.552C326.425 174.219 326.556 176.743 326.687 179.235L331.615 179.081H331.834C333.948 179.287 335.894 180.327 337.245 181.974C338.595 183.62 339.239 185.738 339.035 187.862C338.98 189.727 338.231 191.505 336.937 192.844C335.897 193.871 334.564 194.547 333.123 194.776H333.003H332.883C331.003 194.853 329.201 194.908 327.419 194.951C327.529 197.531 327.649 200.121 327.747 202.744C327.831 205.09 326.995 207.376 325.42 209.109Z" fill="#15AC5B"/>
<path d="M391.115 292.786C389.846 294.092 388.19 294.951 386.394 295.233C384.969 295.443 383.515 295.2 382.234 294.539C380.952 293.878 379.909 292.831 379.248 291.546C378.38 289.802 378.064 287.834 378.341 285.904C379.237 279.78 379.958 273.579 380.526 267.411H378.286C373.915 267.29 369.359 267.104 364.889 266.829C363.173 266.721 361.538 266.054 360.233 264.929C358.928 263.804 358.023 262.283 357.656 260.595C357.261 258.892 357.292 257.118 357.748 255.43C358.204 253.743 359.069 252.195 360.267 250.926C360.646 250.544 361.064 250.202 361.513 249.906C362.857 249.028 364.423 248.555 366.026 248.544H366.179C370.736 248.808 375.139 248.995 379.292 249.104H381.608C381.794 243.013 381.805 236.856 381.608 230.775C381.761 227.68 382.614 225.376 384.143 223.839C385.328 222.674 386.867 221.94 388.514 221.754H388.646H388.766C393.082 221.973 396.185 225.365 396.655 230.413C397.016 236.615 397.169 242.859 397.114 249.071C401.485 248.929 405.692 248.687 409.681 248.347C410.595 248.303 411.508 248.459 412.357 248.804C413.206 249.149 413.971 249.674 414.598 250.344C415.46 251.392 416.107 252.6 416.503 253.9C416.899 255.199 417.035 256.565 416.904 257.917C416.676 260.383 415.683 262.713 414.062 264.579C413.009 265.661 411.63 266.363 410.139 266.577C405.768 266.972 401.125 267.235 396.404 267.378C395.934 273.832 395.235 280.285 394.317 286.563C393.862 288.901 392.751 291.061 391.115 292.786Z" fill="#15AC5B"/>
<path d="M190.719 265.743C190.41 266.058 190.033 266.296 189.617 266.437C189.201 266.579 188.758 266.622 188.322 266.561C187.887 266.5 187.472 266.338 187.11 266.087C186.748 265.837 186.45 265.505 186.239 265.118C185.31 263.109 184.927 259.872 185.037 255.405C185.182 248.223 185.861 241.061 187.069 233.981C188.861 221.908 194.15 208.617 197.144 201.747C197.807 200.061 198.757 198.505 199.952 197.148C200.243 196.851 200.561 196.582 200.903 196.347C201.445 195.959 202.098 195.76 202.763 195.78C203.427 195.799 204.068 196.037 204.586 196.456C206.454 198.004 206.203 201.439 203.831 206.96C201.358 212.76 199.27 218.718 197.581 224.795C198.572 225.964 199.669 227.037 200.859 227.999C202.256 229.129 203.209 230.72 203.547 232.488C203.852 234.929 203.716 237.406 203.143 239.798C202.796 241.67 201.967 243.418 200.739 244.868C200.122 245.547 199.278 245.974 198.367 246.069C197.457 246.165 196.543 245.921 195.8 245.384C195.048 244.874 194.325 244.321 193.636 243.727C192.936 248.778 192.503 253.863 192.336 258.961C192.336 258.961 192.369 264.075 190.719 265.743Z" fill="#15AC5B"/>
<path d="M339.756 344.612C335.557 348.803 330.18 351.6 324.348 352.624C312.667 354.764 301.784 349.99 295.937 340.167C293.628 336.278 292.365 331.853 292.271 327.326C292.177 322.799 293.256 318.324 295.402 314.342C296.678 311.918 298.305 309.699 300.232 307.757C305.569 302.543 312.647 299.511 320.087 299.251C329.408 299.58 337.232 303.213 342.247 309.469C344.517 312.311 346.152 315.609 347.041 319.14C347.931 322.672 348.055 326.354 347.405 329.938C346.414 335.501 343.743 340.624 339.756 344.612Z" fill="#15AC5B"/>
<path d="M431.644 331.584C428.366 334.877 425.153 336.765 422.399 336.995C421.088 337.116 419.771 336.831 418.625 336.18C417.479 335.529 416.558 334.542 415.985 333.351C411.33 324.648 418.455 297.748 431.021 285.126C432.393 283.728 433.909 282.481 435.545 281.405C436.672 280.657 437.934 280.139 439.26 279.88C440.542 279.583 441.879 279.641 443.13 280.05C444.382 280.457 445.5 281.199 446.363 282.196C449.957 286.377 449.87 295.816 446.144 306.824C442.933 316.34 437.403 325.833 431.644 331.584Z" fill="#15AC5B"/>
<path d="M252.655 174.933L252.032 175.537C238.602 187.873 225.238 191.177 218.966 188.071C217.579 187.409 216.436 186.323 215.702 184.968C214.968 183.613 214.68 182.06 214.879 180.531C215.382 174.714 219.665 167.492 226.899 160.171C233.794 153.246 242.514 147.067 249.65 144.027C256.129 141.283 261.145 141.14 264.172 143.621C265.04 144.343 265.737 145.251 266.212 146.278C266.686 147.305 266.926 148.426 266.915 149.558C267.232 159.645 252.797 174.791 252.655 174.933Z" fill="#15AC5B"/>
<path d="M230.483 344.963C229.533 345.901 228.341 346.554 227.041 346.847C225.741 347.139 224.386 347.061 223.128 346.62C215.315 344.36 208.376 335.085 204.924 329.751C199.809 321.838 195.712 312.454 194.215 305.244C192.871 298.746 193.537 293.928 196.149 291.316C196.295 291.177 196.448 291.045 196.608 290.921C197.452 290.229 198.439 289.733 199.497 289.47C200.555 289.206 201.658 289.18 202.727 289.395C210.977 290.789 221.73 304.761 224.724 309.7C234.231 325.416 235.138 338.971 231.127 344.25C230.93 344.469 230.712 344.7 230.483 344.963Z" fill="#15AC5B"/>
<path d="M454.385 261.759C455.476 260.662 455.476 259.915 455.137 253.067V252.584C454.77 245.444 453.874 238.341 452.45 231.336C451.624 227.139 450.582 222.988 449.325 218.901C447.334 212.253 444.862 205.76 441.929 199.475C441.265 197.903 440.398 196.427 439.349 195.084C438.944 194.623 438.408 194.299 437.814 194.155C437.219 194.011 436.595 194.055 436.026 194.281C435.457 194.507 434.972 194.903 434.635 195.416C434.299 195.929 434.129 196.534 434.147 197.148C434.407 199.82 435.147 202.423 436.333 204.831C439.005 210.642 441.28 216.63 443.14 222.753C442.483 224.102 441.645 225.354 440.649 226.474L440.529 226.649L440.419 226.825C440.097 227.425 439.862 228.068 439.72 228.735C439.185 231.687 440.277 240.544 443.436 242.651C444 243.041 444.668 243.249 445.352 243.249C446.037 243.249 446.705 243.041 447.269 242.651H447.346L447.556 242.476H447.608C448.222 246.647 448.702 251.135 449.029 256.327C449.269 260.025 449.698 261.814 451.652 262.528C452.135 262.668 452.644 262.671 453.128 262.535C453.612 262.399 454.046 262.131 454.385 261.759Z" fill="#15AC5B"/>
<path d="M317.508 392.99C317.401 392.781 317.32 392.56 317.268 392.331H312.657C310.777 392.421 308.937 391.776 307.521 390.531C307.224 390.234 306.989 389.88 306.829 389.492C306.669 389.103 306.586 388.686 306.586 388.265C306.586 387.844 306.669 387.427 306.829 387.038C306.989 386.649 307.224 386.296 307.521 385.998C308.611 385.044 310.034 384.562 311.477 384.659C314.056 384.659 316.591 384.659 319.126 384.659C319.29 383.705 319.442 382.64 319.606 381.466C319.773 380.529 320.224 379.667 320.896 378.996C322.422 377.64 324.411 376.928 326.447 377.01C327.221 376.953 327.998 377.072 328.72 377.357C329.443 377.642 330.092 378.086 330.621 378.656C331.079 379.22 331.407 379.878 331.58 380.584C331.754 381.29 331.77 382.026 331.627 382.739C331.495 383.408 331.375 383.946 331.255 384.418L336.642 384.254C337.538 384.2 338.433 384.362 339.254 384.725C339.693 384.943 340.075 385.263 340.368 385.658C340.66 386.052 340.856 386.512 340.937 386.997C341.005 387.498 340.953 388.009 340.786 388.486C340.619 388.963 340.341 389.393 339.975 389.741C338.653 391.069 335.801 391.881 333.67 392.002C331.539 392.123 329.124 392.145 326.83 392.2C325.965 393.109 324.898 393.797 323.715 394.208C322.468 394.511 321.182 394.618 319.902 394.526C317.902 394.23 317.738 393.604 317.508 392.99Z" fill="#15AC5B"/>
<path d="M350.41 134.775C349.11 136.07 345.187 140.021 310.078 139.253C290.015 138.386 286.835 135.324 286.354 132.449C286.26 131.805 286.325 131.149 286.542 130.537C286.759 129.924 287.122 129.375 287.6 128.936C288.617 128.002 289.815 127.288 291.119 126.84C296.583 124.7 307.51 123.163 318.317 123.01C323.223 122.944 347.875 123.01 351.252 130.045C351.564 130.669 351.707 131.365 351.666 132.062C351.626 132.76 351.404 133.434 351.022 134.018C350.841 134.288 350.636 134.541 350.41 134.775Z" fill="#15AC5B"/>
<path d="M426.179 191.495C424.537 193.045 422.433 194.009 420.191 194.239C410.007 195.688 388.753 181.167 380.186 163.838C375.968 155.365 377.848 150.81 380.186 148.472L380.372 148.297C386.928 142.183 401.134 148.011 415.875 162.784C427.622 174.681 431.709 185.953 426.179 191.495Z" fill="#15AC5B"/>
</svg>
