<svg width="1549" height="480" viewBox="0 0 1549 480" fill="none" xmlns="http://www.w3.org/2000/svg">
<path d="M1374.98 250.907C1374.6 209.609 1346.2 179.694 1307.42 179.694C1267.61 179.694 1239.82 208.645 1239.82 250.113C1239.82 291.884 1268.18 322.215 1307.42 322.215C1326.18 322.215 1343.06 315.483 1355.28 303.305V312.76C1355.28 315.267 1356.27 317.672 1358.05 319.445C1359.82 321.219 1362.22 322.215 1364.73 322.215C1367.33 322.25 1369.84 321.289 1371.75 319.531C1373.66 317.773 1374.82 315.35 1375 312.76V250.907H1374.98ZM1307.42 303.267C1276.33 303.267 1259.56 275.849 1259.56 250.075C1259.56 225.19 1278.79 198.547 1307.42 198.547C1330.62 198.547 1355.28 217.21 1355.28 251.758C1355.16 264.628 1350.51 277.045 1342.16 286.835C1337.92 291.948 1332.61 296.07 1326.61 298.909C1320.61 301.748 1314.06 303.236 1307.42 303.267Z" fill="#3E3A39"/>
<path d="M1016.06 179.694C976.355 179.694 948.463 208.645 948.463 250.113C948.463 291.884 976.827 322.215 1016.06 322.215C1034.82 322.215 1051.73 315.483 1063.94 303.305V312.76C1063.94 315.267 1064.94 317.672 1066.71 319.445C1068.48 321.219 1070.89 322.215 1073.39 322.215C1075.99 322.255 1078.51 321.297 1080.42 319.538C1082.34 317.779 1083.5 315.353 1083.68 312.76V250.907C1083.25 209.609 1054.85 179.694 1016.06 179.694ZM1016.06 303.305C992.863 303.305 968.203 284.66 968.203 250.113C968.203 225.228 987.435 198.585 1016.06 198.585C1039.27 198.585 1063.94 217.248 1063.94 251.796C1063.81 264.669 1059.16 277.086 1050.8 286.873C1046.56 291.977 1041.26 296.09 1035.26 298.922C1029.26 301.755 1022.71 303.238 1016.08 303.267L1016.06 303.305Z" fill="#3E3A39"/>
<path d="M794.596 179.694C754.884 179.694 726.992 208.645 726.992 250.113C726.992 291.884 755.356 322.215 794.596 322.215C813.352 322.215 830.256 315.483 842.471 303.305V312.76C842.471 315.267 843.467 317.672 845.243 319.445C847.015 321.219 849.419 322.215 851.927 322.215C854.527 322.255 857.043 321.297 858.955 319.538C860.867 317.779 862.035 315.353 862.215 312.76V250.907C861.779 209.609 833.376 179.694 794.596 179.694ZM794.596 303.305C771.392 303.305 746.736 284.66 746.736 250.113C746.736 225.228 765.964 198.585 794.596 198.585C825.68 198.604 842.531 225.966 842.531 251.758C842.375 264.643 837.687 277.061 829.292 286.835C825.068 291.947 819.772 296.068 813.78 298.908C807.788 301.747 801.244 303.235 794.612 303.267L794.596 303.305Z" fill="#3E3A39"/>
<path d="M936.471 180.354C934.299 179.935 932.087 179.726 929.871 179.729C925.091 179.625 920.347 180.606 915.999 182.597C911.647 184.588 907.807 187.538 904.759 191.226V189.619C904.759 187.001 903.719 184.49 901.871 182.639C900.019 180.788 897.507 179.748 894.891 179.748C892.271 179.748 889.764 180.788 887.912 182.639C886.06 184.49 885.02 187.001 885.02 189.619V312.303C885.02 314.921 886.06 317.432 887.912 319.283C889.764 321.134 892.271 322.174 894.891 322.174C896.187 322.174 897.471 321.919 898.667 321.423C899.863 320.927 900.951 320.199 901.871 319.283C902.787 318.366 903.515 317.278 904.011 316.081C904.507 314.883 904.759 313.599 904.759 312.303V246.518C904.759 233.281 904.611 213.123 913.799 203.877C915.443 202.093 917.459 200.696 919.703 199.784C921.951 198.871 924.371 198.468 926.791 198.601C929.323 198.615 931.855 198.83 934.355 199.244C934.723 199.282 935.099 199.282 935.471 199.244C936.991 199.141 938.459 198.654 939.739 197.827C941.019 197 942.071 195.861 942.787 194.517C943.575 193.2 944.035 191.714 944.127 190.184C944.219 188.653 943.943 187.122 943.319 185.721C942.695 184.32 941.747 183.088 940.547 182.131C939.347 181.174 937.939 180.519 936.435 180.221L936.471 180.354Z" fill="#3E3A39"/>
<path d="M1232.78 182.664C1231.84 181.746 1230.73 181.027 1229.5 180.547C1228.28 180.066 1226.97 179.836 1225.66 179.867C1224.35 179.899 1223.05 180.193 1221.85 180.731C1220.65 181.27 1219.57 182.043 1218.68 183.004L1167.93 236.65L1117.17 182.853C1116.3 181.866 1115.24 181.063 1114.05 180.492C1112.86 179.922 1111.57 179.595 1110.25 179.53C1108.94 179.466 1107.63 179.666 1106.39 180.118C1105.15 180.57 1104.01 181.266 1103.05 182.164C1102.09 183.061 1101.31 184.143 1100.77 185.345C1100.23 186.547 1099.94 187.844 1099.91 189.161C1099.88 190.479 1100.11 191.789 1100.59 193.014C1101.08 194.24 1101.8 195.356 1102.72 196.297L1154.35 251.021L1103.07 305.234C1101.27 307.104 1100.25 309.585 1100.22 312.175C1100.19 314.765 1101.13 317.272 1102.87 319.189C1103.79 320.139 1104.89 320.893 1106.11 321.407C1107.32 321.92 1108.63 322.182 1109.95 322.177C1111.3 322.173 1112.64 321.893 1113.88 321.353C1115.13 320.813 1116.24 320.026 1117.17 319.038L1167.91 265.392L1218.49 319.038C1219.42 320.026 1220.54 320.814 1221.79 321.354C1223.03 321.893 1224.37 322.174 1225.73 322.177C1227.05 322.178 1228.35 321.914 1229.57 321.401C1230.79 320.887 1231.88 320.135 1232.8 319.189C1234.54 317.267 1235.49 314.757 1235.45 312.165C1235.42 309.573 1234.4 307.091 1232.61 305.215L1181.56 251.04L1233.18 196.449C1234.91 194.545 1235.83 192.046 1235.76 189.476C1235.69 186.906 1234.62 184.464 1232.78 182.664Z" fill="#3E3A39"/>
<path d="M719.012 179.694H615.901C613.281 179.694 610.773 180.734 608.921 182.586C607.069 184.437 606.029 186.947 606.029 189.565C606.029 192.183 607.069 194.693 608.921 196.545C610.773 198.396 613.281 199.436 615.901 199.436H657.501V312.665C657.501 315.173 658.497 317.578 660.269 319.351C662.045 321.124 664.449 322.12 666.957 322.12C669.553 322.16 672.065 321.201 673.977 319.442C675.889 317.683 677.049 315.257 677.225 312.665V199.473H718.92C721.536 199.473 724.048 198.434 725.9 196.583C727.748 194.731 728.788 192.221 728.788 189.603C728.788 186.985 727.748 184.474 725.9 182.623C724.048 180.772 721.536 179.732 718.92 179.732L719.012 179.694Z" fill="#3E3A39"/>
<path d="M313.066 413.851C310.23 416.687 304.954 417.462 298.62 415.95C289.827 413.87 283.492 408.858 282.641 403.469C282.469 402.353 282.568 401.212 282.93 400.142C283.293 399.073 283.907 398.106 284.721 397.324C285.284 396.746 285.92 396.244 286.612 395.83C288.218 394.972 289.98 394.445 291.793 394.279C302.836 393.637 310.911 399.744 313.445 403.734C314.457 405.034 315.034 406.619 315.095 408.265C315.156 409.911 314.698 411.534 313.785 412.905C313.572 413.24 313.332 413.556 313.066 413.851Z" fill="#15AC5B"/>
<path d="M453.639 401.84C453.329 402.162 453.001 402.465 452.656 402.748C445.3 409.253 433.992 412.713 428.452 410.142C427.207 409.589 426.158 408.675 425.44 407.519C424.721 406.362 424.367 405.016 424.424 403.656C424.727 400.642 426.176 397.86 428.47 395.884C433.408 391.19 439.714 388.196 446.472 387.337C447.547 387.224 448.631 387.224 449.706 387.337C454.641 387.753 456.475 390.079 457.269 391.951C458.858 396.319 455.19 400.441 454.036 401.614L453.639 401.84Z" fill="#15AC5B"/>
<path d="M289.695 264.595C286.454 267.877 282.36 270.188 277.876 271.27C268.724 273.426 259.553 269.644 253.294 261.172C249.406 255.504 247.161 248.871 246.807 242.007C246.453 235.142 248.005 228.313 251.29 222.276C252.654 219.832 254.353 217.592 256.339 215.619C258.881 213.026 261.967 211.028 265.374 209.769C268.781 208.51 272.424 208.022 276.042 208.339C279.368 208.801 282.564 209.942 285.43 211.693C288.296 213.443 290.771 215.764 292.701 218.512C298.259 226.666 300.41 236.668 298.696 246.385C297.648 253.239 294.504 259.6 289.695 264.595Z" fill="#15AC5B"/>
<path d="M369.398 171.675C368.448 172.651 367.291 173.4 366.013 173.869C364.179 174.45 362.212 174.467 360.368 173.918C358.523 173.368 356.887 172.277 355.67 170.787C354.067 168.783 353.153 166.316 353.06 163.752L352.871 152.407C350.432 152.407 347.974 152.407 345.534 152.407H345.213C343.234 152.21 341.361 151.415 339.844 150.128C338.328 148.841 337.239 147.123 336.722 145.202C336.157 143.158 336.119 141.003 336.612 138.94C337.104 136.876 338.112 134.971 339.54 133.403L340.202 132.798C341.628 131.627 343.375 130.915 345.213 130.755H345.516H352.399L352.209 120.733C352.169 117.758 353.249 114.875 355.235 112.659C356.649 111.264 358.483 110.373 360.454 110.125H360.719H361.437H361.626C364.519 110.465 369.511 112.186 370.514 119.901C370.741 123.57 370.93 127.068 371.1 130.547L377.926 130.358H378.229C381.143 130.646 383.825 132.073 385.692 134.329C387.558 136.585 388.458 139.487 388.194 142.404C388.114 144.966 387.083 147.406 385.301 149.249C383.86 150.672 382.007 151.604 380.006 151.915H379.855H379.685C377.075 152.028 374.579 152.104 372.121 152.18C372.291 155.716 372.443 159.309 372.594 162.92C372.715 166.144 371.568 169.287 369.398 171.675Z" fill="#15AC5B"/>
<path d="M460.352 287.022C458.601 288.824 456.311 290.006 453.828 290.388C451.856 290.674 449.843 290.337 448.071 289.426C446.298 288.514 444.854 287.072 443.939 285.302C442.742 282.905 442.3 280.202 442.672 277.549C443.92 269.097 444.922 260.531 445.659 252.04H442.558C436.451 251.889 430.211 251.624 424.027 251.246C421.649 251.095 419.384 250.174 417.576 248.622C415.768 247.069 414.514 244.97 414.005 242.642C413.478 240.309 413.532 237.882 414.162 235.574C414.791 233.266 415.978 231.148 417.617 229.406C418.14 228.875 418.717 228.4 419.338 227.987C421.201 226.773 423.373 226.117 425.597 226.096H425.805C432.12 226.456 438.209 226.72 443.939 226.853H447.153C447.399 218.457 447.418 209.967 447.153 201.59C447.101 198.113 448.348 194.741 450.652 192.135C452.294 190.471 454.455 189.417 456.778 189.147H457.118C463.113 189.431 467.405 194.121 468.048 201.06C468.54 209.626 468.767 218.23 468.691 226.72C474.723 226.531 480.566 226.191 486.088 225.718C487.352 225.658 488.614 225.874 489.786 226.35C490.959 226.827 492.013 227.554 492.876 228.479C494.074 229.916 494.974 231.578 495.523 233.367C496.071 235.156 496.258 237.036 496.072 238.898C495.771 242.311 494.386 245.537 492.12 248.107C490.661 249.595 488.755 250.564 486.693 250.868C480.566 251.397 474.213 251.757 467.67 251.965C467.008 260.871 466.044 269.758 464.796 278.438C464.167 281.666 462.625 284.646 460.352 287.022Z" fill="#15AC5B"/>
<path d="M182.913 249.658C182.499 250.097 181.987 250.431 181.418 250.632C180.848 250.833 180.24 250.894 179.642 250.811C179.041 250.733 178.467 250.52 177.959 250.189C177.452 249.859 177.025 249.419 176.711 248.901C175.425 246.103 174.82 241.66 175.047 235.495C175.25 225.598 176.198 215.731 177.883 205.977C180.341 189.393 187.678 171.014 191.819 161.54C192.707 159.227 193.987 157.085 195.601 155.205C196.001 154.793 196.445 154.425 196.925 154.109C197.673 153.566 198.58 153.286 199.504 153.313C200.427 153.341 201.316 153.674 202.031 154.26C204.602 156.378 204.281 161.105 200.991 168.726C197.559 176.718 194.666 184.93 192.33 193.308C193.682 194.926 195.19 196.408 196.83 197.733C198.788 199.277 200.129 201.47 200.612 203.916C201.038 207.275 200.852 210.683 200.064 213.976C199.585 216.568 198.431 218.988 196.717 220.991C195.86 221.92 194.694 222.504 193.436 222.633C192.179 222.762 190.918 222.427 189.891 221.691C188.873 220.981 187.895 220.218 186.96 219.403C185.994 226.363 185.394 233.369 185.163 240.392C185.163 240.392 185.201 247.445 182.913 249.658Z" fill="#15AC5B"/>
<path d="M389.309 358.461C383.475 364.249 376.003 368.104 367.904 369.504C351.736 372.454 336.666 365.874 328.553 352.334C325.359 346.971 323.612 340.87 323.482 334.629C323.353 328.387 324.847 322.219 327.816 316.728C329.58 313.384 331.836 310.324 334.51 307.651C341.892 300.485 351.667 296.309 361.948 295.928C374.844 296.381 385.679 301.392 392.619 310.015C395.772 313.926 398.047 318.47 399.291 323.338C400.533 328.206 400.715 333.284 399.823 338.228C398.466 345.887 394.797 352.948 389.309 358.461Z" fill="#15AC5B"/>
<path d="M516.457 340.422C511.881 344.998 507.456 347.57 503.655 347.986C501.841 348.148 500.02 347.753 498.436 346.854C496.852 345.956 495.578 344.596 494.786 342.956C488.338 330.967 498.19 293.791 515.587 276.489C517.485 274.563 519.583 272.845 521.846 271.365C523.412 270.328 525.165 269.609 527.008 269.247C528.783 268.842 530.634 268.925 532.365 269.487C534.097 270.05 535.643 271.071 536.841 272.442C541.814 278.115 541.682 291.219 536.539 306.479C532.076 319.602 524.38 332.669 516.457 340.516V340.422Z" fill="#15AC5B"/>
<path d="M268.667 124.593L267.798 125.425C249.209 142.443 230.716 146.981 222.037 142.689C220.11 141.781 218.523 140.284 217.503 138.414C216.483 136.545 216.084 134.4 216.364 132.289C217.064 124.29 223.001 114.325 233.08 104.246C242.535 94.6968 254.693 86.1686 264.564 81.9896C273.527 78.2077 280.486 78.0186 284.665 81.4223C285.865 82.4193 286.828 83.6718 287.482 85.0884C288.136 86.505 288.466 88.0498 288.447 89.6101C288.844 103.509 268.856 124.385 268.667 124.593Z" fill="#15AC5B"/>
<path d="M237.959 358.936C236.643 360.225 234.994 361.122 233.198 361.526C231.4 361.931 229.526 361.826 227.786 361.224C216.988 358.104 207.363 345.321 202.598 337.965C195.507 327.073 189.834 314.121 187.773 304.193C185.882 295.249 186.828 288.593 190.439 284.981C190.653 284.765 190.88 284.563 191.12 284.376C192.289 283.415 193.658 282.726 195.126 282.36C196.595 281.993 198.127 281.959 199.61 282.258C211.051 284.149 225.932 303.456 230.055 310.263C243.291 331.915 244.482 350.616 238.923 357.877C238.627 358.252 238.305 358.606 237.959 358.936Z" fill="#15AC5B"/>
<path d="M547.941 244.251C549.397 242.814 549.397 241.717 548.981 232.263V231.62C548.464 221.768 547.2 211.97 545.199 202.31C544.049 196.568 542.61 190.888 540.887 185.292C538.125 176.123 534.7 167.168 530.638 158.497C529.717 156.356 528.515 154.346 527.065 152.522C526.694 152.102 526.241 151.762 525.733 151.525C525.226 151.287 524.675 151.157 524.115 151.141C523.554 151.126 522.995 151.225 522.473 151.432C521.951 151.639 521.476 151.95 521.078 152.346C520.68 152.742 520.367 153.215 520.158 153.736C519.948 154.258 519.847 154.816 519.86 155.377C520.28 158.998 521.329 162.518 522.961 165.777C526.67 173.791 529.828 182.049 532.416 190.492C531.509 192.355 530.351 194.086 528.974 195.635L528.804 195.862L528.653 196.108C528.205 196.932 527.88 197.818 527.689 198.736C526.951 202.821 528.464 215.018 532.832 217.929C533.613 218.46 534.535 218.744 535.479 218.744C536.423 218.744 537.346 218.46 538.127 217.929H538.24L538.524 217.683C539.375 223.356 540.017 229.615 540.415 236.782C540.755 241.888 541.341 244.346 544.045 245.31C544.728 245.52 545.457 245.531 546.146 245.344C546.835 245.157 547.457 244.778 547.941 244.251Z" fill="#15AC5B"/>
<path d="M358.449 425.062C358.298 424.777 358.189 424.472 358.128 424.155H351.737C349.143 424.292 346.597 423.425 344.627 421.734C344.215 421.323 343.889 420.836 343.667 420.298C343.444 419.762 343.33 419.186 343.33 418.605C343.33 418.024 343.444 417.448 343.667 416.911C343.889 416.374 344.215 415.886 344.627 415.475C346.126 414.146 348.091 413.466 350.091 413.584C353.665 413.584 357.182 413.584 360.662 413.584C360.889 412.28 361.115 410.804 361.323 409.178C361.559 407.886 362.186 406.698 363.12 405.774C365.232 403.908 367.981 402.926 370.797 403.033C371.853 402.973 372.908 403.148 373.889 403.543C374.87 403.938 375.751 404.546 376.47 405.321C377.123 406.096 377.589 407.01 377.832 407.994C378.074 408.978 378.087 410.004 377.869 410.994C377.68 411.92 377.529 412.658 377.359 413.32L384.809 413.074C386.049 412.994 387.29 413.222 388.421 413.736C389.031 414.032 389.562 414.47 389.97 415.012C390.378 415.555 390.65 416.187 390.766 416.856C390.861 417.546 390.791 418.249 390.561 418.906C390.33 419.564 389.947 420.158 389.442 420.638C386.934 422.576 383.874 423.668 380.706 423.758C377.548 423.871 374.409 423.966 371.251 424.041C370.055 425.293 368.577 426.239 366.94 426.802C365.214 427.22 363.435 427.373 361.664 427.256C358.96 426.84 358.771 425.97 358.449 425.062Z" fill="#15AC5B"/>
<path d="M403.983 69.2243C402.206 71.0207 396.76 76.4477 348.162 75.4076C320.384 74.2164 316.016 69.9806 315.317 65.953C315.19 65.067 315.28 64.1635 315.58 63.3202C315.879 62.4769 316.38 61.7191 317.037 61.1121C318.454 59.8498 320.114 58.8909 321.916 58.2946C329.518 55.3448 344.645 53.2269 359.565 53C366.353 53 400.485 53 405.174 62.7005C405.591 63.5576 405.778 64.5078 405.718 65.4588C405.659 66.4098 405.354 67.3292 404.834 68.1275C404.598 68.5282 404.312 68.8968 403.983 69.2243Z" fill="#15AC5B"/>
<path d="M508.892 147.417C506.615 149.555 503.698 150.884 500.591 151.199C486.503 153.09 457.099 133.235 445.148 109.295C439.305 97.6095 441.896 91.3316 445.148 88.1359L445.394 87.89C454.452 79.4565 474.193 87.493 494.559 107.859C510.896 124.234 516.532 139.778 508.892 147.417Z" fill="#15AC5B"/>
</svg>
